{
	"asset":{
		"generator":"Khronos glTF Blender I/O v4.2.70",
		"version":"2.0"
	},
	"scene":0,
	"scenes":[
		{
			"name":"Scene",
			"nodes":[
				0,
				1,
				2
			]
		}
	],
	"nodes":[
		{
			"mesh":0,
			"name":"Cube.001"
		},
		{
			"mesh":1,
			"name":"Suzanne"
		},
		{
			"mesh":2,
			"name":"Icosphere"
		}
	],
	"materials":[
		{
			"doubleSided":true,
			"name":"Material.001",
			"pbrMetallicRoughness":{
				"baseColorFactor":[
					0.8002663850784302,
					0.14104485511779785,
					0.1340111494064331,
					1
				],
				"metallicFactor":0,
				"roughnessFactor":0.5
			}
		},
		{
			"doubleSided":true,
			"name":"Material",
			"pbrMetallicRoughness":{
				"baseColorFactor":[
					0.800000011920929,
					0.800000011920929,
					0.800000011920929,
					1
				],
				"metallicFactor":0,
				"roughnessFactor":0.5
			}
		},
		{
			"doubleSided":true,
			"name":"Material.002",
			"pbrMetallicRoughness":{
				"baseColorFactor":[
					0.2930321991443634,
					0.8002911806106567,
					0.0674760490655899,
					1
				],
				"metallicFactor":0,
				"roughnessFactor":0.5
			}
		}
	],
	"meshes":[
		{
			"name":"Cube.002",
			"primitives":[
				{
					"attributes":{
						"POSITION":0,
						"NORMAL":1,
						"TEXCOORD_0":2
					},
					"indices":3,
					"material":0
				}
			]
		},
		{
			"name":"Suzanne",
			"primitives":[
				{
					"attributes":{
						"POSITION":4,
						"NORMAL":5,
						"TEXCOORD_0":6
					},
					"indices":7,
					"material":1
				}
			]
		},
		{
			"name":"Icosphere",
			"primitives":[
				{
					"attributes":{
						"POSITION":8,
						"NORMAL":9,
						"TEXCOORD_0":10
					},
					"indices":11,
					"material":2
				}
			]
		}
	],
	"accessors":[
		{
			"bufferView":0,
			"componentType":5126,
			"count":24,
			"max":[
				0.15184491872787476,
				0.31880152225494385,
				0.15000000596046448
			],
			"min":[
				-0.1481550931930542,
				0.018801510334014893,
				-0.15000000596046448
			],
			"type":"VEC3"
		},
		{
			"bufferView":1,
			"componentType":5126,
			"count":24,
			"type":"VEC3"
		},
		{
			"bufferView":2,
			"componentType":5126,
			"count":24,
			"type":"VEC2"
		},
		{
			"bufferView":3,
			"componentType":5123,
			"count":36,
			"type":"SCALAR"
		},
		{
			"bufferView":4,
			"componentType":5126,
			"count":555,
			"max":[
				0.6159515976905823,
				0.2813389301300049,
				0.10947178304195404
			],
			"min":[
				0.2644367516040802,
				0.028248203918337822,
				-0.10947178304195404
			],
			"type":"VEC3"
		},
		{
			"bufferView":5,
			"componentType":5126,
			"count":555,
			"type":"VEC3"
		},
		{
			"bufferView":6,
			"componentType":5126,
			"count":555,
			"type":"VEC2"
		},
		{
			"bufferView":7,
			"componentType":5123,
			"count":2904,
			"type":"SCALAR"
		},
		{
			"bufferView":8,
			"componentType":5126,
			"count":240,
			"max":[
				-0.3251049220561981,
				0.3210545778274536,
				0.15000000596046448
			],
			"min":[
				-0.6251049041748047,
				0.02105456218123436,
				-0.15000000596046448
			],
			"type":"VEC3"
		},
		{
			"bufferView":9,
			"componentType":5126,
			"count":240,
			"type":"VEC3"
		},
		{
			"bufferView":10,
			"componentType":5126,
			"count":240,
			"type":"VEC2"
		},
		{
			"bufferView":11,
			"componentType":5123,
			"count":240,
			"type":"SCALAR"
		}
	],
	"bufferViews":[
		{
			"buffer":0,
			"byteLength":288,
			"byteOffset":0,
			"target":34962
		},
		{
			"buffer":0,
			"byteLength":288,
			"byteOffset":288,
			"target":34962
		},
		{
			"buffer":0,
			"byteLength":192,
			"byteOffset":576,
			"target":34962
		},
		{
			"buffer":0,
			"byteLength":72,
			"byteOffset":768,
			"target":34963
		},
		{
			"buffer":0,
			"byteLength":6660,
			"byteOffset":840,
			"target":34962
		},
		{
			"buffer":0,
			"byteLength":6660,
			"byteOffset":7500,
			"target":34962
		},
		{
			"buffer":0,
			"byteLength":4440,
			"byteOffset":14160,
			"target":34962
		},
		{
			"buffer":0,
			"byteLength":5808,
			"byteOffset":18600,
			"target":34963
		},
		{
			"buffer":0,
			"byteLength":2880,
			"byteOffset":24408,
			"target":34962
		},
		{
			"buffer":0,
			"byteLength":2880,
			"byteOffset":27288,
			"target":34962
		},
		{
			"buffer":0,
			"byteLength":1920,
			"byteOffset":30168,
			"target":34962
		},
		{
			"buffer":0,
			"byteLength":480,
			"byteOffset":32088,
			"target":34963
		}
	],
	"buffers":[
		{
			"byteLength":32568,
			"uri":"box.bin"
		}
	]
}
