{
	"asset":{
		"generator":"Khronos glTF Blender I/O v4.2.70",
		"version":"2.0"
	},
	"scene":0,
	"scenes":[
		{
			"name":"Scene",
			"nodes":[
				0,
				1,
				2
			]
		}
	],
	"nodes":[
		{
			"mesh":0,
			"name":"Cube.001"
		},
		{
			"mesh":1,
			"name":"Suzanne"
		},
		{
			"mesh":2,
			"name":"Icosphere"
		}
	],
	"materials":[
		{
			"doubleSided":true,
			"name":"Material.001",
			"pbrMetallicRoughness":{
				"baseColorFactor":[
					0.8002663850784302,
					0.14104485511779785,
					0.1340111494064331,
					1
				],
				"metallicFactor":0,
				"roughnessFactor":0.5
			}
		},
		{
			"doubleSided":true,
			"name":"Material.002",
			"pbrMetallicRoughness":{
				"baseColorFactor":[
					0.800000011920929,
					0.800000011920929,
					0.800000011920929,
					1
				],
				"metallicFactor":0,
				"roughnessFactor":0.5
			}
		},
		{
			"doubleSided":true,
			"name":"Material.003",
			"pbrMetallicRoughness":{
				"baseColorFactor":[
					0.2930321991443634,
					0.8002911806106567,
					0.0674760490655899,
					1
				],
				"metallicFactor":0,
				"roughnessFactor":0.5
			}
		}
	],
	"meshes":[
		{
			"name":"Cube.002",
			"primitives":[
				{
					"attributes":{
						"POSITION":0,
						"TEXCOORD_0":1
					},
					"indices":2,
					"material":0
				}
			]
		},
		{
			"name":"Suzanne",
			"primitives":[
				{
					"attributes":{
						"POSITION":3,
						"TEXCOORD_0":4
					},
					"indices":5,
					"material":1
				}
			]
		},
		{
			"name":"Icosphere",
			"primitives":[
				{
					"attributes":{
						"POSITION":6,
						"TEXCOORD_0":7
					},
					"indices":8,
					"material":2
				}
			]
		}
	],
	"accessors":[
		{
			"bufferView":0,
			"componentType":5126,
			"count":24,
			"max":[
				0.20216362178325653,
				0.4244466722011566,
				0.19970732927322388
			],
			"min":[
				-0.19725105166435242,
				0.02503199502825737,
				-0.19970732927322388
			],
			"type":"VEC3"
		},
		{
			"bufferView":1,
			"componentType":5126,
			"count":24,
			"type":"VEC2"
		},
		{
			"bufferView":2,
			"componentType":5123,
			"count":36,
			"type":"SCALAR"
		},
		{
			"bufferView":3,
			"componentType":5126,
			"count":555,
			"max":[
				0.8200669288635254,
				0.3745696544647217,
				0.1457487791776657
			],
			"min":[
				0.35206636786460876,
				0.03760915622115135,
				-0.1457487791776657
			],
			"type":"VEC3"
		},
		{
			"bufferView":4,
			"componentType":5126,
			"count":555,
			"type":"VEC2"
		},
		{
			"bufferView":5,
			"componentType":5123,
			"count":2904,
			"type":"SCALAR"
		},
		{
			"bufferView":6,
			"componentType":5126,
			"count":240,
			"max":[
				-0.43283891677856445,
				0.4274463653564453,
				0.19970732927322388
			],
			"min":[
				-0.8322535753250122,
				0.028031667694449425,
				-0.19970732927322388
			],
			"type":"VEC3"
		},
		{
			"bufferView":7,
			"componentType":5126,
			"count":240,
			"type":"VEC2"
		},
		{
			"bufferView":8,
			"componentType":5123,
			"count":240,
			"type":"SCALAR"
		}
	],
	"bufferViews":[
		{
			"buffer":0,
			"byteLength":288,
			"byteOffset":0,
			"target":34962
		},
		{
			"buffer":0,
			"byteLength":192,
			"byteOffset":288,
			"target":34962
		},
		{
			"buffer":0,
			"byteLength":72,
			"byteOffset":480,
			"target":34963
		},
		{
			"buffer":0,
			"byteLength":6660,
			"byteOffset":552,
			"target":34962
		},
		{
			"buffer":0,
			"byteLength":4440,
			"byteOffset":7212,
			"target":34962
		},
		{
			"buffer":0,
			"byteLength":5808,
			"byteOffset":11652,
			"target":34963
		},
		{
			"buffer":0,
			"byteLength":2880,
			"byteOffset":17460,
			"target":34962
		},
		{
			"buffer":0,
			"byteLength":1920,
			"byteOffset":20340,
			"target":34962
		},
		{
			"buffer":0,
			"byteLength":480,
			"byteOffset":22260,
			"target":34963
		}
	],
	"buffers":[
		{
			"byteLength":22740,
			"uri":"box2.bin"
		}
	]
}
