{
	"asset":{
		"generator":"Khronos glTF Blender I/O v4.2.70",
		"version":"2.0"
	},
	"scene":0,
	"scenes":[
		{
			"name":"Scene",
			"nodes":[
				0,
				1,
				2
			]
		}
	],
	"nodes":[
		{
			"mesh":0,
			"name":"Cube.001"
		},
		{
			"mesh":1,
			"name":"Suzanne"
		},
		{
			"mesh":2,
			"name":"Icosphere"
		}
	],
	"materials":[
		{
			"doubleSided":true,
			"name":"Material.001",
			"pbrMetallicRoughness":{
				"baseColorFactor":[
					0.8002663850784302,
					0.14104485511779785,
					0.1340111494064331,
					1
				],
				"metallicFactor":0,
				"roughnessFactor":0.5
			}
		},
		{
			"doubleSided":true,
			"name":"Material.002",
			"pbrMetallicRoughness":{
				"baseColorFactor":[
					0.800000011920929,
					0.800000011920929,
					0.800000011920929,
					1
				],
				"metallicFactor":0,
				"roughnessFactor":0.5
			}
		},
		{
			"doubleSided":true,
			"name":"Material.003",
			"pbrMetallicRoughness":{
				"baseColorFactor":[
					0.2930321991443634,
					0.8002911806106567,
					0.0674760490655899,
					1
				],
				"metallicFactor":0,
				"roughnessFactor":0.5
			}
		}
	],
	"meshes":[
		{
			"name":"Cube.002",
			"primitives":[
				{
					"attributes":{
						"POSITION":0,
						"TEXCOORD_0":1
					},
					"indices":2,
					"material":0
				}
			]
		},
		{
			"name":"Suzanne",
			"primitives":[
				{
					"attributes":{
						"POSITION":3,
						"TEXCOORD_0":4
					},
					"indices":5,
					"material":1
				}
			]
		},
		{
			"name":"Icosphere",
			"primitives":[
				{
					"attributes":{
						"POSITION":6,
						"TEXCOORD_0":7
					},
					"indices":8,
					"material":2
				}
			]
		}
	],
	"accessors":[
		{
			"bufferView":0,
			"componentType":5126,
			"count":24,
			"max":[
				0.257609099149704,
				0.5408555865287781,
				0.25447914004325867
			],
			"min":[
				-0.25134921073913574,
				0.03189728036522865,
				-0.25447914004325867
			],
			"type":"VEC3"
		},
		{
			"bufferView":1,
			"componentType":5126,
			"count":24,
			"type":"VEC2"
		},
		{
			"bufferView":2,
			"componentType":5123,
			"count":36,
			"type":"SCALAR"
		},
		{
			"bufferView":3,
			"componentType":5126,
			"count":555,
			"max":[
				1.0449788570404053,
				0.4772992730140686,
				0.18572190403938293
			],
			"min":[
				0.44862425327301025,
				0.04792385920882225,
				-0.18572190403938293
			],
			"type":"VEC3"
		},
		{
			"bufferView":4,
			"componentType":5126,
			"count":555,
			"type":"VEC2"
		},
		{
			"bufferView":5,
			"componentType":5123,
			"count":2904,
			"type":"SCALAR"
		},
		{
			"bufferView":6,
			"componentType":5126,
			"count":240,
			"max":[
				-0.55154949426651,
				0.5446779727935791,
				0.25447914004325867
			],
			"min":[
				-1.0605077743530273,
				0.03571964427828789,
				-0.25447914004325867
			],
			"type":"VEC3"
		},
		{
			"bufferView":7,
			"componentType":5126,
			"count":240,
			"type":"VEC2"
		},
		{
			"bufferView":8,
			"componentType":5123,
			"count":240,
			"type":"SCALAR"
		}
	],
	"bufferViews":[
		{
			"buffer":0,
			"byteLength":288,
			"byteOffset":0,
			"target":34962
		},
		{
			"buffer":0,
			"byteLength":192,
			"byteOffset":288,
			"target":34962
		},
		{
			"buffer":0,
			"byteLength":72,
			"byteOffset":480,
			"target":34963
		},
		{
			"buffer":0,
			"byteLength":6660,
			"byteOffset":552,
			"target":34962
		},
		{
			"buffer":0,
			"byteLength":4440,
			"byteOffset":7212,
			"target":34962
		},
		{
			"buffer":0,
			"byteLength":5808,
			"byteOffset":11652,
			"target":34963
		},
		{
			"buffer":0,
			"byteLength":2880,
			"byteOffset":17460,
			"target":34962
		},
		{
			"buffer":0,
			"byteLength":1920,
			"byteOffset":20340,
			"target":34962
		},
		{
			"buffer":0,
			"byteLength":480,
			"byteOffset":22260,
			"target":34963
		}
	],
	"buffers":[
		{
			"byteLength":22740,
			"uri":"box2.bin"
		}
	]
}
